<?xml version="1.0" encoding="utf-8"?>
<!-- Generator: Adobe Illustrator 27.0.0, SVG Export Plug-In . SVG Version: 6.00 Build 0)  -->
<svg version="1.1" id="Layer_1" xmlns="http://www.w3.org/2000/svg" xmlns:xlink="http://www.w3.org/1999/xlink" x="0px" y="0px"
	 viewBox="0 0 20 20" style="enable-background:new 0 0 20 20;" xml:space="preserve">
<style type="text/css">
	.st0{fill:#FFFFFF;}
</style>
<path class="st0" d="M7,14h2V6H7V14z M11,14h2V6h-2V14z M10,20c-1.4,0-2.7-0.3-3.9-0.8c-1.2-0.5-2.3-1.2-3.2-2.1s-1.6-2-2.1-3.2
	S0,11.4,0,10c0-1.4,0.3-2.7,0.8-3.9S2,3.8,2.9,2.9s2-1.6,3.2-2.1S8.6,0,10,0s2.7,0.3,3.9,0.8s2.3,1.2,3.2,2.1s1.6,2,2.1,3.2
	C19.7,7.3,20,8.6,20,10c0,1.4-0.3,2.7-0.8,3.9c-0.5,1.2-1.2,2.3-2.1,3.2s-2,1.6-3.2,2.1C12.7,19.7,11.4,20,10,20z M10,18
	c2.2,0,4.1-0.8,5.7-2.3S18,12.2,18,10s-0.8-4.1-2.3-5.7S12.2,2,10,2S5.9,2.8,4.3,4.3S2,7.8,2,10s0.8,4.1,2.3,5.7S7.8,18,10,18z"/>
</svg>
